<svg width="32" height="32" viewBox="0 0 32 32" fill="none" xmlns="http://www.w3.org/2000/svg">
  <defs>
    <linearGradient id="bg" x1="0%" y1="0%" x2="100%" y2="100%">
      <stop offset="0%" stop-color="#3B82F6"/>
      <stop offset="50%" stop-color="#8B5CF6"/>
      <stop offset="100%" stop-color="#EC4899"/>
    </linearGradient>
    <linearGradient id="accent" x1="0%" y1="0%" x2="100%" y2="100%">
      <stop offset="0%" stop-color="#10B981"/>
      <stop offset="100%" stop-color="#06B6D4"/>
    </linearGradient>
  </defs>
  
  <!-- Rounded Background -->
  <rect width="32" height="32" rx="7" fill="url(#bg)"/>
  
  <!-- Main Design -->
  <g fill="white">
    <!-- Modern P Letter -->
    <path d="M7 5 L7 27 L10 27 L10 18 L16 18 C19.5 18 21.5 16 21.5 12.5 C21.5 9 19.5 7 16 7 L7 5 Z M10 9 L15.5 9 C17 9 18.5 10 18.5 12.5 C18.5 15 17 16 15.5 16 L10 16 Z" fill="white"/>
    
    <!-- Upward Growth Arrow -->
    <path d="M24 7 L26.5 4.5 L27.5 5.5 L26 7 L26 13 L24 13 L24 7 L22.5 5.5 L23.5 4.5 Z" fill="url(#accent)" opacity="0.9"/>
    
    <!-- Cross-promotion Connection Lines -->
    <line x1="21" y1="12" x2="24" y2="9" stroke="url(#accent)" stroke-width="1.5" opacity="0.7"/>
    <circle cx="25" cy="16" r="1.5" fill="url(#accent)" opacity="0.8"/>
    <circle cx="4" cy="20" r="1" fill="white" opacity="0.7"/>
  </g>
</svg>